<?xml version="1.0" encoding="UTF-8"?><svg id="a" xmlns="http://www.w3.org/2000/svg" viewBox="0 0 100 100"><defs><style>.b{fill:#fff;}</style></defs><path class="b" d="M0,0c33.33,0,66.67,0,100,0,0,33.33,0,66.67,0,100-33.33,0-66.67,0-100,0C0,66.67,0,33.33,0,0ZM55.58,87.44c-.11,0-.16,0-.21,0-5.65,.96-11.15,.42-16.47-1.71-11.53-4.6-19.06-15.48-19.32-27.92-.01-.56-.28-.54-.68-.56-.44-.02-.55,.16-.51,.56,.16,1.64,.17,3.3,.47,4.91,1.82,9.67,6.98,17.04,15.43,22.07,4.55,2.71,9.52,4.06,14.81,4.26,2.24,.08,4.45-.09,6.69-.49l-.21-1.12Zm-5.38-60.88c9.47,.26,17.35,3.83,23.4,11.06,6.07,7.25,8.12,15.67,6.72,25l1.1,.18c3.62-20.73-13.21-37.85-31.22-37.3v1.07Zm15.91,11.21c.18,0,.21,0,.24,0,.06,.02,.13,.04,.19,.07,2.1,.98,3.64,2.5,4.48,4.68,.97,2.52,1.02,5.12,.48,7.72-.98,4.73-4.32,7.99-8.96,8.32-2.51,.18-4.71-.5-6.36-2.45-.69-.82-1.27-1.75-1.78-2.7-.55-1.02-.94-2.13-1.42-3.19-.67-1.49-1.87-2.23-3.38-1.98-.68,.11-1.34,.38-2,.6-.35,.12-.53,.39-.35,.75,.17,.34,.46,.3,.78,.18,.55-.2,1.09-.4,1.66-.52,.97-.19,1.75,.2,2.21,1.07,.24,.45,.42,.94,.62,1.42,.64,1.54,1.32,3.06,2.34,4.4,1.08,1.43,2.43,2.52,4.16,3.05,3.78,1.16,9.28,.06,12.09-5,1.51-2.72,1.91-5.65,1.64-8.7-.17-1.87-.69-3.63-1.75-5.2-1.39-2.07-3.37-3.3-5.76-4.01-.02,.14-.03,.24-.03,.33-.04,1.65-.06,3.3-.11,4.95-.02,.45,.13,.73,.5,1,1.21,.87,2.15,1.94,2.47,3.45,.08,.38,.09,.86,.68,.78,.38-.05,.45-.38,.3-1.05-.37-1.62-1.33-2.84-2.61-3.85-.15-.12-.31-.33-.31-.5-.03-1.2-.01-2.4-.01-3.62Zm-30.69,9.36l.14-.13c.23,.02,.46,.02,.69,.05,1.57,.21,2.95,.91,4.27,1.72,4.3,2.66,8.42,5.56,12.26,8.85,2.18,1.87,4.37,3.7,6.27,5.87,.82,.94,.79,1.03-.35,1.43-1.5,.52-1.75,.98-1.41,2.53,.17,.76,.05,.93-.74,.91-.61-.01-1.18,.06-1.72,.38-.25,.15-.76,.29-.83,.19-.19-.24-.2-.63-.27-.96-.02-.09,.02-.2,.05-.29,.14-.58,.28-1.16,.41-1.75,.16-.77,.02-1.03-.69-1.32-.37-.15-.74-.3-1.12-.42-.41-.14-.61-.41-.57-.83,.05-.58,.14-1.15,.23-1.73,.05-.32-.01-.58-.35-.66-.37-.09-.57,.13-.64,.46-.11,.55-.23,1.11-.26,1.67-.07,1.12,.3,1.66,1.33,2.07,.36,.15,.73,.28,1.1,.42-.07,.28-.14,.48-.17,.7-.11,.74-.32,1.48-.3,2.21,.02,1.27,1.06,1.89,2.19,1.33,.61-.3,1.21-.46,1.9-.47,1.23-.02,1.75-.74,1.5-1.96q-.24-1.2,.92-1.59c.06-.02,.13-.04,.19-.06,1.28-.44,1.59-1.33,.77-2.43-.49-.67-1.06-1.28-1.66-1.86-4.58-4.47-9.55-8.45-14.93-11.92-1.53-.99-3.13-1.9-4.74-2.76-1-.53-2.11-.81-3.27-.78-.82,.02-1.25,.54-1.12,1.35,.17,1.07,.98,1.62,1.81,2.13,.12,.07,.51-.06,.57-.19,.08-.17,.02-.5-.11-.65-.24-.29-.61-.47-.87-.75-.2-.21-.31-.51-.46-.76Zm1.48,14.41c.15,.01,.45,.09,.71,.03,.21-.05,.48-.25,.55-.45,.09-.28-.12-.51-.44-.54-.61-.05-1.23-.11-1.84-.11-.42,0-.67,.4-.43,.73,.28,.39,.14,.63-.13,.9-.13,.13-.24,.28-.36,.42-.98,1.23-.94,2.3,.17,3.41,.36,.36,.8,.65,1.2,.98,.29,.23,.51,.47,.51,.91,0,.61,.31,.96,.93,1.14,.72,.21,1.43,.44,2.16,.6,.31,.07,.69,.09,.97-.03,1.35-.6,2.76-.98,4.21-1.19,.94-.13,1.49-.64,1.81-1.49,.49-1.29,1.16-2.47,2.04-3.53,.36-.44,.4-.91,.33-1.45-.1-.77-.18-1.55-.18-2.33,0-.67-.13-1.2-.79-1.52-.43-.2-.52-.57-.34-1.01,.14-.32,.24-.66,.39-.97,.17-.38,.09-.65-.25-.9-1.19-.86-2.36-1.73-3.55-2.6-.06-.04-.14-.06-.23-.1,.1,1.4,.19,2.77,.28,4.13,.01,.17,0,.38-.08,.52-.32,.51-.64,1.02-1.03,1.47-.19,.22-.51,.37-.8,.46-.48,.14-.98,.21-1.47,.29-.36,.06-.64,.22-.58,.61,.06,.4,.4,.45,.74,.39,.52-.09,1.05-.19,1.57-.29,.63-.13,1.13-.48,1.49-1.01,.32-.47,.67-.91,.96-1.4,.14-.24,.22-.55,.22-.83-.01-.72-.08-1.44-.14-2.27l1.83,1.34c-.1,.27-.2,.52-.29,.77-.41,1.18-.28,1.55,.71,2.29,.17,.12,.28,.4,.31,.61,.09,.84,.15,1.69,.2,2.53,.01,.21,0,.49-.13,.64-.94,1.2-1.68,2.52-2.23,3.94-.16,.41-.44,.61-.88,.7-.96,.19-1.97,.29-2.86,.67-1.19,.51-2.31,.73-3.51,.13-.16-.08-.37-.05-.53-.13-.12-.06-.28-.22-.28-.33,.04-.69-.36-1.12-.83-1.51-.28-.23-.59-.43-.87-.67-1.08-.92-1.11-1.47-.21-2.56,.33-.4,.6-.85,.96-1.39Zm21.9,12.55l.23,.08c.07,.89,.15,1.77,.21,2.66,.07,.95,.08,1.9,.19,2.84,.07,.57,.19,1.19,.91,1.34,.56,.12,1.04-.25,1.41-1.04,.15-.31,.27-.65,.37-.98,.15-.51,.25-1.04,.4-1.54,.23-.77,.49-1.54,.77-2.39,.31,.2,.51,.31,.68,.46,.41,.37,.78,.78,1.21,1.12,.41,.32,.85,.67,1.33,.84,.85,.3,1.5-.14,1.7-1.03,.17-.78-.02-1.51-.24-2.26-.28-.94-.56-1.88-.76-2.84-.13-.62,.08-.81,.71-.83,.15,0,.3,0,.45,.04,1.31,.37,2.62,.74,3.93,1.12,.33,.1,.65,.15,.8-.24,.15-.41-.09-.62-.46-.73-1.05-.33-2.09-.68-3.15-.96-.56-.15-1.15-.23-1.72-.22-1.15,.01-1.79,.74-1.58,1.86,.21,1.11,.58,2.18,.84,3.28,.11,.48,.16,.98,.19,1.47,.02,.4-.26,.49-.57,.32-.29-.16-.55-.37-.8-.58-.63-.52-1.2-1.11-1.87-1.57-.65-.44-1.19-.29-1.54,.41-.34,.68-.58,1.41-.82,2.14-.27,.82-.46,1.66-.71,2.49-.06,.2-.2,.37-.31,.56l-.2-.04c-.05-.91-.07-1.82-.15-2.72-.09-1.06-.13-2.13-.35-3.16-.2-.95-.78-1.18-1.6-.68-.64,.39-1.25,.89-1.75,1.46-2.27,2.54-3.66,5.58-4.83,8.73-.02,.05-.05,.11-.04,.14,.09,.21,.13,.49,.3,.6,.26,.17,.51,.01,.64-.27,.07-.15,.12-.31,.18-.46,1.13-3.01,2.51-5.88,4.7-8.29,.38-.42,.86-.75,1.29-1.13ZM30.54,37.81c.26-.18,.47-.33,.69-.49,1.05-.76,1.06-.77,.69-1.99-.11-.37-.1-.61,.27-.82,.32-.18,.6-.42,.89-.64,.37-.26,.74-.72,1.1-.71,.39,0,.78,.44,1.17,.69,.06,.04,.11,.1,.16,.11,.12,.01,.27,.04,.35-.01,.56-.38,1.1-.79,1.64-1.18-.05-.07-.06-.11-.08-.12-2.26-1.47-4.51-2.95-6.78-4.41-.11-.07-.35-.05-.47,.03-.53,.35-1.02,.75-1.55,1.1-.26,.17-.3,.34-.22,.62,.28,.99,.54,1.99,.81,2.98,.43,1.6,.87,3.2,1.31,4.85Zm-5.57,7.99c-.77,.07-1.48,.14-2.19,.21-1.97,.19-3.94,.39-5.91,.57-.3,.03-.43,.14-.49,.43-.13,.57-.29,1.13-.47,1.68-.1,.32-.05,.5,.23,.7,2.05,1.49,4.08,2.99,6.11,4.49,.12,.08,.24,.15,.39,.25,.06-.22,.12-.39,.16-.56,.13-.46,.46-1,.33-1.37-.13-.39-.7-.66-1.09-.94-.23-.17-.27-.33-.19-.59,.17-.55,.3-1.12,.47-1.68,.31-.99,.03-.83,1.1-.89,.23-.01,.47-.02,.69-.06,.11-.02,.25-.12,.28-.21,.2-.65,.37-1.3,.57-2.02Zm12.98-21.73c.98,.98,1.88,1.89,2.8,2.78,.25,.24,.31,.44,.2,.78-.41,1.21-.79,2.43-1.18,3.65-.05,.16-.09,.33-.16,.57,.56-.13,1.04-.29,1.53-.35,.6-.08,.87-.37,.97-.96,.14-.79,.37-1.57,.59-2.45,.69,.78,1.3,1.49,1.93,2.17,.12,.13,.34,.26,.48,.23,.72-.14,1.43-.34,2.2-.52-1.09-1.09-2.11-2.13-3.16-3.16-.22-.21-.28-.4-.17-.7,.31-.89,.59-1.8,.88-2.7,.11-.35,.22-.7,.34-1.11-.67,.16-1.25,.31-1.83,.43-.29,.06-.44,.19-.51,.5-.17,.8-.39,1.59-.61,2.48-.6-.7-1.13-1.34-1.69-1.95-.11-.12-.34-.23-.49-.2-.68,.14-1.35,.32-2.13,.52Zm-9.28-4.45s.08-.06,.09-.08c.31-.55,.61-1.11,.91-1.66,.63-1.17,.62-1.16,1.92-.94,.61,.1,1.23,.16,1.85,.24l.06-.11c-.42-.44-.84-.88-1.25-1.33q-.92-.98-.33-2.16c.29-.58,.57-1.16,.91-1.85-.97,.45-1.82,.83-2.65,1.25-.31,.15-.51,.12-.74-.13-.64-.7-1.3-1.38-1.95-2.06l-.13,.1c.11,.87,.2,1.74,.35,2.59,.08,.48-.02,.76-.49,.98-.8,.37-1.56,.81-2.43,1.27,1.01,.19,1.92,.37,2.83,.53,.33,.06,.52,.19,.58,.56,.13,.93,.31,1.86,.47,2.8Zm47.1-4.17c-.93-.49-1.73-.92-2.54-1.33-.29-.14-.43-.31-.38-.65,.13-.96,.24-1.92,.35-2.88l-.11-.08c-.66,.7-1.33,1.4-1.99,2.1-.2,.21-.39,.25-.66,.11-.62-.32-1.26-.6-1.89-.9-.2-.09-.4-.19-.6-.28-.02,.24,.04,.39,.11,.53,.3,.61,.58,1.24,.91,1.83,.23,.41,.22,.69-.14,1.04-.63,.61-1.21,1.27-1.88,2,.73-.1,1.35-.2,1.97-.27,.45-.05,1.01-.26,1.34-.07,.36,.21,.51,.78,.75,1.2,.28,.5,.55,1,.89,1.61,.17-.98,.36-1.8,.45-2.64,.06-.56,.32-.75,.84-.82,.83-.12,1.65-.31,2.6-.49Zm-29.89-7.11l-.02,.17c.67,.51,1.32,1.05,2.02,1.52,.43,.3,.52,.6,.35,1.09-.28,.8-.5,1.63-.79,2.58,.8-.56,1.51-1,2.16-1.52,.44-.35,.77-.36,1.22,0,.66,.52,1.37,.96,2.17,1.52-.29-.96-.49-1.78-.79-2.57-.2-.53-.06-.82,.37-1.11,.51-.34,.99-.73,1.48-1.11,.17-.13,.34-.27,.51-.4l-.05-.17c-.75,0-1.49,0-2.24,0-1.07-.01-.88,.16-1.24-.87-.26-.74-.52-1.48-.82-2.31-.34,.97-.66,1.83-.94,2.7-.11,.36-.29,.5-.67,.49-.91-.03-1.81,0-2.72,0Zm10.94,29.35c-2.27,0-4.35,.73-6.34,1.74-2,1.02-3.94,2.15-5.93,3.2-1.67,.88-3.4,1.6-5.25,1.99-.19,.04-.42,.34-.44,.54-.04,.3,.23,.48,.54,.44,.44-.07,.88-.16,1.31-.28,2.6-.75,4.92-2.08,7.27-3.38,1.4-.77,2.81-1.53,4.26-2.18,1.83-.81,3.74-1.24,5.78-1,1.43,.17,2.69,.7,3.9,1.43,.32,.19,.64,.28,.86-.11,.19-.35-.03-.58-.33-.77-1.72-1.08-3.58-1.68-5.63-1.62Zm-30.14,7.77c1.04,.06,1.9-.13,2.4-1.21,.49-1.06,.45-2.04-.35-2.9-.28-.3-.61-.57-.95-.8-1.87-1.3-3.75-2.58-5.63-3.87-.12-.08-.25-.15-.39-.24l-1.2,1.71c1.16,.79,2.27,1.55,3.38,2.31,.77,.53,1.54,1.04,2.3,1.58,.92,.65,1.12,1.24,.82,2.33-.1,.37-.24,.72-.37,1.09Zm15.85,28.23l-.1,.17c-.49-.13-.99-.23-1.47-.41-2.14-.79-4.25-1.62-6.4-2.39-2.19-.78-4.42-1.36-6.78-1.17-.36,.03-.69,.08-.68,.54,0,.46,.35,.49,.71,.48,1.29-.06,2.58-.05,3.81,.36,2.29,.75,4.55,1.58,6.83,2.35,1.29,.43,2.58,.88,3.9,1.2,.89,.21,1.48-.6,1.09-1.43-.2-.44-.57-.81-.89-1.18-.21-.25-.5-.3-.75-.05-.27,.26-.19,.53,.05,.79,.23,.25,.46,.51,.69,.77Zm-4.02-22.81c.35-.39,.63-.68,.9-.99,.2-.23,.25-.48,.02-.72-.24-.25-.51-.23-.75,0-.3,.31-.61,.62-.87,.96-.59,.75-.37,1.44,.55,1.72,.27,.08,.56,.09,.84,.12,.28,.04,.57,.04,.84,.11,.11,.03,.27,.16,.29,.26,.04,.25,.01,.52,.01,.82-.44-.11-.84-.23-1.24-.3-.55-.09-.87,.13-.98,.67-.09,.42-.12,.86-.18,1.28-.21,1.35-.57,2.71,.25,4.1-.77-.09-1.42-.18-2.08-.25-.32-.03-.56,.14-.54,.44,.02,.19,.23,.5,.4,.52,.8,.13,1.62,.25,2.43,.23,1-.01,1.25-.62,.73-1.48-.22-.37-.41-.83-.41-1.24,0-.72,.15-1.45,.24-2.17,.04-.36,.09-.71,.14-1.09,.35,.1,.64,.2,.93,.27,.88,.21,1.3-.11,1.36-1.01,.02-.28,0-.57,0-.85-.03-.7-.25-1-.93-1.17-.32-.08-.66-.11-.98-.15-.27-.03-.55-.06-.95-.1Zm-20.97,6.44c-.32,2.07,.38,7.64,2.17,12.01,2.78,6.81,7.28,12.15,13.55,15.99,3.4,2.08,7.08,3.42,10.99,4.19,4.45,.87,10.77,.46,11.76-.18-9.98,1.54-18.93-.65-26.64-7.1-7.72-6.45-11.51-14.88-11.83-24.91Zm64.75,5.62c.67-2.31,.98-7.68-.1-12.59-1.45-6.59-4.61-12.24-9.5-16.89-5.08-4.82-11.11-7.72-18.04-8.72-1.46-.21-2.94-.32-4.44-.21,10.01,.34,18.4,4.13,24.85,11.81,6.46,7.71,8.67,16.67,7.23,26.6Zm-34.62,9.29c.37-.69,.74-1.37,1.11-2.05,.52-.96,.91-1.96,1.06-3.05,.05-.36,0-.66-.41-.72-.41-.06-.51,.24-.61,.57-.27,.87-.51,1.76-.89,2.58-.49,1.05-1.11,2.05-1.66,3.07-.17,.32-.54,.64-.18,1.03,.32,.35,.68,.07,1.01-.04,1.22-.39,2.44-.78,3.66-1.16,.41-.13,.84-.2,1.26-.33,.43-.13,.55-.65,.2-.89-.14-.09-.38-.1-.56-.05-1.32,.33-2.63,.68-3.99,1.03Zm-27.14-15.08c-.37,.82,.04,4.79,.71,7.37,1.72,6.62,5.26,12.08,10.66,16.28,5.56,4.33,11.91,6.39,18.95,6.27,1.53-.03,3.04-.15,4.54-.56-9.01,1.29-17.16-.7-24.16-6.57-7.01-5.87-10.46-13.53-10.7-22.8Zm58.88,5.25c.55-2.42,.66-4.85,.47-7.3-.45-6.08-2.56-11.53-6.32-16.32-2.81-3.58-6.27-6.37-10.36-8.38-3.82-1.88-11.23-3.54-12.97-2.86,9.09,.28,16.73,3.72,22.58,10.71,5.87,7,7.87,15.15,6.6,24.16Zm-19.76,7.88c.08,.29,.12,.59,.23,.85,.44,.98,1.7,1.52,2.93,1.28,1.28-.25,2.13-1.11,2.16-2.25,0-.18-.19-.44-.36-.51-.13-.06-.39,.09-.54,.2-.1,.08-.14,.26-.17,.41-.17,.82-.74,1.12-1.5,1.2-.75,.08-1.57-.41-1.68-1.02-.13-.77,.37-1.42,1.23-1.59,.16-.03,.33-.04,.49-.05,.32-.03,.49-.2,.49-.51,0-.32-.2-.46-.51-.49-1.48-.13-2.71,.99-2.76,2.49Zm-25.14-13.64c.13-.31,.2-.55,.32-.76,.64-1.16,1.3-2.32,1.95-3.48,.17-.3,.19-.59-.14-.77-.32-.17-.57-.03-.75,.27-.48,.82-.99,1.62-1.43,2.45-.37,.69-.68,1.41-.97,2.13-.22,.55-.11,.82,.46,1,.63,.2,1.29,.31,1.93,.46,.35,.08,.65,.01,.72-.39,.07-.41-.21-.55-.55-.62-.49-.09-.97-.19-1.54-.3Zm9.1,25.81c-.04-.33-.06-.66-.12-.99-.36-2.09-1.49-3.55-3.52-4.25-.46-.16-.87,.03-.81,.39,.04,.22,.29,.49,.5,.56,1.41,.51,2.32,1.46,2.7,2.9,.14,.54,.17,1.11,.24,1.67,.04,.33,.24,.57,.55,.5,.19-.05,.32-.34,.45-.54,.04-.06,0-.16,0-.25Zm38.12-17.11l.15-.53-2.92-.84q-.37,.81,.28,1.23c.44,.29,.88,.59,1.33,.89-.66,.11-1.28,.14-1.89,.11-.34-.02-.48,.12-.54,.42-.03,.16-.07,.31-.11,.5l2.96,.85,.15-.53-2.21-.66v-.15c.7,0,1.39,.01,2.08,0,.15,0,.29-.14,.43-.21-.08-.14-.12-.32-.24-.41-.58-.42-1.17-.81-1.76-1.22l.03-.07,2.26,.63Zm-20.33,20.29l.08-.07c.46,.52,.92,1.05,1.4,1.55,.1,.1,.3,.1,.45,.15,.04-.14,.13-.29,.12-.42-.06-.71-.14-1.41-.21-2.12l.09-.03,.97,2.13,.51-.24-1.26-2.83-.82,.36,.28,2.42-1.62-1.83-.83,.38,1.27,2.84,.5-.24-.91-2.07Zm13.25-11.84l2.64,1.63c.39-.67,.97-1.25,.55-2.08-.32-.62-.89-.97-1.57-1-.92-.03-1.19,.76-1.63,1.44Zm-2.13,2.8l2.42,1.94,.34-.44-1.11-.92c.28-.08,.45-.19,.61-.17,.22,.03,.45,.13,.65,.24,.4,.22,.59,.05,.73-.34l-1.55-.51c.05-.44-.12-.79-.58-.94-.48-.16-.74,.17-1,.48-.17,.2-.33,.41-.52,.65Zm6.65-4.48c.28-.31,.29-.54-.03-.74-.27-.17-.28-.38-.12-.63,.16-.26,.16-.69,.66-.56,.39,.11,.55-.09,.58-.48-.97-.11-1.94-.23-2.91-.32-.13-.01-.33,.12-.39,.23-.06,.12-.03,.36,.06,.45,.7,.69,1.42,1.35,2.16,2.04Zm-21.69,17.07c.49,.09,.57-.16,.53-.51-.05-.44,.3-.41,.55-.48,.24-.07,.51-.25,.67,.13,.16,.39,.41,.47,.76,.17-.53-.81-1.05-1.62-1.6-2.41-.08-.11-.3-.18-.44-.16-.12,.02-.31,.18-.31,.29-.07,.99-.11,1.99-.15,2.97Zm14.99-8.13l1.13-1.13-.39-.34-.59,.83-.73-.61,.71-.75-.31-.28-.66,.63-.64-.52,.74-.78-.26-.24-1.18,1.07,2.18,2.11Zm-6.05,4.04c.14,.12,.25,.29,.37,.3,.41,.06,1.06-.58,1.09-1.01,.03-.52-.41-.97-.97-.97-.22,0-.44,.04-.65,0-.14-.03-.32-.16-.35-.27-.03-.12,.07-.32,.18-.41,.14-.12,.34-.18,.57-.3-.13-.12-.23-.28-.34-.3-.38-.05-.98,.55-1.01,.97-.03,.47,.36,.87,.87,.89,.23,0,.47-.04,.7,0,.15,.03,.35,.17,.39,.3,.04,.13-.06,.36-.17,.46-.15,.14-.38,.19-.68,.33Zm2.74-5.14l-1.51,1.2,.28,.32,.56-.38,1.65,2.07,.41-.38-1.62-2.06,.5-.45-.27-.33Z"/><path d="M55.58,87.44l.21,1.12c-2.24,.4-4.46,.58-6.69,.49-5.29-.2-10.26-1.55-14.81-4.26-8.44-5.03-13.61-12.41-15.43-22.07-.3-1.61-.31-3.28-.47-4.91-.04-.4,.07-.57,.51-.56,.4,.02,.67,0,.68,.56,.27,12.44,7.8,23.32,19.32,27.92,5.32,2.12,10.82,2.67,16.47,1.71,.05,0,.1,0,.21,0Z"/><path d="M50.2,26.55v-1.07c18.01-.55,34.84,16.57,31.22,37.3l-1.1-.18c1.4-9.33-.66-17.75-6.72-25-6.05-7.23-13.94-10.8-23.4-11.06Z"/><path d="M66.1,37.77c0,1.23-.01,2.42,.01,3.62,0,.17,.16,.39,.31,.5,1.28,1.01,2.24,2.22,2.61,3.85,.15,.67,.08,1-.3,1.05-.59,.08-.6-.4-.68-.78-.33-1.51-1.27-2.58-2.47-3.45-.37-.26-.51-.54-.5-1,.06-1.65,.08-3.3,.11-4.95,0-.09,.02-.19,.03-.33,2.39,.72,4.36,1.95,5.76,4.01,1.06,1.57,1.58,3.33,1.75,5.2,.27,3.05-.12,5.98-1.64,8.7-2.81,5.05-8.31,6.15-12.09,5-1.74-.53-3.08-1.62-4.16-3.05-1.02-1.34-1.7-2.86-2.34-4.4-.2-.48-.38-.96-.62-1.42-.46-.87-1.24-1.26-2.21-1.07-.57,.11-1.11,.32-1.66,.52-.32,.11-.61,.15-.78-.18-.18-.36,0-.63,.35-.75,.66-.22,1.32-.49,2-.6,1.51-.25,2.72,.48,3.38,1.98,.47,1.06,.87,2.17,1.42,3.19,.51,.95,1.08,1.89,1.78,2.7,1.66,1.95,3.86,2.63,6.36,2.45,4.64-.33,7.98-3.6,8.96-8.32,.54-2.61,.49-5.2-.48-7.72-.84-2.17-2.38-3.7-4.48-4.68-.06-.03-.12-.05-.19-.07-.03,0-.06,0-.24,0Z"/><path d="M35.42,47.13c.15,.26,.26,.55,.46,.76,.26,.28,.62,.46,.87,.75,.13,.15,.19,.48,.11,.65-.06,.13-.45,.27-.57,.19-.83-.51-1.64-1.06-1.81-2.13-.13-.81,.3-1.33,1.12-1.35,1.16-.03,2.27,.25,3.27,.78,1.61,.86,3.2,1.77,4.74,2.76,5.37,3.47,10.35,7.45,14.93,11.92,.59,.58,1.16,1.2,1.66,1.86,.81,1.1,.51,1.98-.77,2.43-.06,.02-.13,.04-.19,.06q-1.16,.39-.92,1.59c.24,1.22-.27,1.94-1.5,1.96-.69,.01-1.28,.17-1.9,.47-1.13,.56-2.16-.06-2.19-1.33-.01-.74,.19-1.48,.3-2.21,.03-.21,.1-.42,.17-.7-.37-.14-.74-.28-1.1-.42-1.04-.41-1.4-.95-1.33-2.07,.04-.56,.16-1.12,.26-1.67,.06-.33,.26-.55,.64-.46,.34,.08,.4,.34,.35,.66-.09,.57-.17,1.15-.23,1.73-.04,.41,.16,.69,.57,.83,.38,.13,.75,.28,1.12,.42,.71,.29,.85,.55,.69,1.32-.12,.59-.27,1.17-.41,1.75-.02,.1-.06,.2-.05,.29,.07,.33,.08,.71,.27,.96,.08,.1,.59-.04,.83-.19,.54-.32,1.11-.39,1.72-.38,.79,.02,.91-.15,.74-.91-.34-1.55-.09-2.01,1.41-2.53,1.14-.4,1.17-.49,.35-1.43-1.9-2.16-4.09-4-6.27-5.87-3.84-3.29-7.96-6.2-12.26-8.85-1.32-.82-2.7-1.51-4.27-1.72-.23-.03-.46-.03-.69-.05l-.14,.13Z"/><path d="M36.89,61.53c-.37,.53-.63,.99-.96,1.39-.9,1.09-.87,1.64,.21,2.56,.28,.24,.59,.43,.87,.67,.47,.39,.87,.82,.83,1.51,0,.11,.16,.27,.28,.33,.16,.08,.37,.05,.53,.13,1.2,.6,2.32,.38,3.51-.13,.89-.38,1.9-.48,2.86-.67,.44-.09,.72-.29,.88-.7,.55-1.42,1.29-2.74,2.23-3.94,.12-.15,.14-.43,.13-.64-.05-.85-.1-1.69-.2-2.53-.02-.22-.14-.49-.31-.61-1-.74-1.13-1.11-.71-2.29,.09-.25,.18-.49,.29-.77l-1.83-1.34c.06,.83,.13,1.55,.14,2.27,0,.28-.08,.59-.22,.83-.28,.49-.64,.94-.96,1.4-.37,.53-.86,.88-1.49,1.01-.52,.11-1.05,.2-1.57,.29-.34,.06-.68,0-.74-.39-.06-.38,.22-.55,.58-.61,.49-.08,.99-.15,1.47-.29,.29-.08,.61-.24,.8-.46,.39-.45,.71-.96,1.03-1.47,.09-.14,.09-.35,.08-.52-.08-1.36-.18-2.72-.28-4.13,.1,.04,.17,.06,.23,.1,1.18,.87,2.36,1.74,3.55,2.6,.34,.25,.42,.52,.25,.9-.14,.32-.25,.65-.39,.97-.19,.44-.1,.81,.34,1.01,.67,.31,.79,.85,.79,1.52,0,.78,.08,1.56,.18,2.33,.07,.54,.03,1.01-.33,1.45-.88,1.06-1.55,2.25-2.04,3.53-.32,.85-.88,1.36-1.81,1.49-1.45,.21-2.86,.59-4.21,1.19-.28,.12-.66,.1-.97,.03-.73-.16-1.44-.39-2.16-.6-.61-.18-.94-.54-.93-1.14,0-.44-.22-.68-.51-.91-.4-.32-.84-.61-1.2-.98-1.11-1.11-1.15-2.18-.17-3.41,.11-.14,.23-.29,.36-.42,.27-.27,.41-.51,.13-.9-.24-.33,.01-.74,.43-.73,.62,0,1.23,.06,1.84,.11,.32,.03,.53,.26,.44,.54-.06,.19-.33,.39-.55,.45-.26,.07-.56-.02-.71-.03Z"/><path d="M58.79,74.09c-.43,.37-.91,.71-1.29,1.13-2.19,2.41-3.57,5.28-4.7,8.29-.06,.16-.11,.31-.18,.46-.13,.28-.38,.44-.64,.27-.16-.11-.21-.39-.3-.6-.02-.04,.02-.1,.04-.14,1.17-3.15,2.56-6.19,4.83-8.73,.5-.56,1.11-1.06,1.75-1.46,.82-.5,1.4-.27,1.6,.68,.21,1.03,.26,2.1,.35,3.16,.07,.91,.1,1.81,.15,2.72l.2,.04c.11-.19,.25-.36,.31-.56,.25-.83,.45-1.67,.71-2.49,.23-.73,.48-1.46,.82-2.14,.35-.7,.89-.85,1.54-.41,.67,.46,1.24,1.04,1.87,1.57,.25,.21,.51,.43,.8,.58,.31,.17,.59,.08,.57-.32-.02-.49-.07-.99-.19-1.47-.26-1.1-.63-2.17-.84-3.28-.21-1.12,.43-1.85,1.58-1.86,.57,0,1.17,.08,1.72,.22,1.06,.28,2.1,.64,3.15,.96,.37,.11,.61,.33,.46,.73-.15,.39-.47,.33-.8,.24-1.31-.38-2.62-.75-3.93-1.12-.14-.04-.3-.04-.45-.04-.64,.02-.85,.21-.71,.83,.2,.96,.48,1.9,.76,2.84,.22,.74,.41,1.48,.24,2.26-.19,.89-.85,1.34-1.7,1.03-.48-.17-.92-.51-1.33-.84-.43-.34-.8-.75-1.21-1.12-.17-.15-.38-.26-.68-.46-.28,.85-.54,1.61-.77,2.39-.15,.51-.25,1.03-.4,1.54-.1,.33-.22,.66-.37,.98-.37,.79-.85,1.16-1.41,1.04-.72-.15-.84-.78-.91-1.34-.11-.94-.12-1.89-.19-2.84-.06-.89-.14-1.77-.21-2.66l-.23-.08Z"/><path d="M30.54,37.81c-.45-1.65-.88-3.25-1.31-4.85-.27-.99-.53-1.99-.81-2.98-.08-.28-.04-.45,.22-.62,.53-.35,1.02-.75,1.55-1.1,.12-.08,.36-.1,.47-.03,2.27,1.46,4.52,2.94,6.78,4.41,.02,.02,.04,.05,.08,.12-.54,.4-1.09,.8-1.64,1.18-.08,.06-.23,.03-.35,.01-.06,0-.11-.07-.16-.11-.39-.25-.78-.69-1.17-.69-.37,0-.74,.45-1.1,.71-.3,.21-.58,.46-.89,.64-.37,.2-.38,.45-.27,.82,.37,1.23,.36,1.23-.69,1.99-.21,.15-.43,.31-.69,.49Zm-.06-7.54l-.11,.08,.94,2.96,1.62-1.17-2.45-1.86Z"/><path d="M24.97,45.8c-.2,.72-.37,1.37-.57,2.02-.03,.09-.17,.19-.28,.21-.23,.05-.46,.05-.69,.06-1.07,.06-.79-.1-1.1,.89-.17,.55-.3,1.12-.47,1.68-.08,.26-.05,.42,.19,.59,.4,.28,.96,.55,1.09,.94,.13,.38-.2,.91-.33,1.37-.05,.17-.1,.34-.16,.56-.15-.1-.28-.16-.39-.25-2.04-1.5-4.07-3.01-6.11-4.49-.28-.2-.34-.38-.23-.7,.18-.55,.34-1.11,.47-1.68,.07-.29,.19-.4,.49-.43,1.97-.18,3.94-.38,5.91-.57,.71-.07,1.42-.13,2.19-.21Zm-7.1,2.49l-.02,.13,2.6,1.74,.5-1.87h-3.08Z"/><path d="M37.95,24.07c.78-.19,1.45-.38,2.13-.52,.15-.03,.38,.08,.49,.2,.56,.61,1.09,1.25,1.69,1.95,.22-.88,.44-1.68,.61-2.48,.07-.32,.22-.44,.51-.5,.58-.13,1.16-.27,1.83-.43-.13,.41-.23,.76-.34,1.11-.29,.9-.57,1.81-.88,2.7-.11,.3-.05,.48,.17,.7,1.04,1.03,2.07,2.07,3.16,3.16-.77,.19-1.48,.38-2.2,.52-.14,.03-.37-.11-.48-.23-.63-.68-1.24-1.39-1.93-2.17-.22,.88-.45,1.66-.59,2.45-.1,.6-.37,.89-.97,.96-.49,.06-.97,.22-1.53,.35,.06-.23,.1-.4,.16-.57,.39-1.22,.76-2.44,1.18-3.65,.12-.34,.05-.54-.2-.78-.92-.89-1.82-1.8-2.8-2.78Z"/><path d="M28.67,19.62c-.16-.95-.34-1.87-.47-2.8-.05-.37-.24-.5-.58-.56-.91-.16-1.82-.34-2.83-.53,.87-.46,1.63-.9,2.43-1.27,.47-.22,.58-.49,.49-.98-.15-.86-.24-1.73-.35-2.59l.13-.1c.65,.69,1.31,1.37,1.95,2.06,.23,.25,.43,.28,.74,.13,.83-.42,1.68-.8,2.65-1.25-.34,.69-.62,1.27-.91,1.85q-.59,1.18,.33,2.16c.42,.44,.84,.88,1.25,1.33l-.06,.11c-.62-.08-1.24-.14-1.85-.24-1.29-.21-1.29-.22-1.92,.94-.3,.56-.61,1.11-.91,1.66-.01,.02-.05,.04-.09,.08Z"/><path d="M75.77,15.45c-.95,.18-1.77,.37-2.6,.49-.52,.07-.78,.26-.84,.82-.09,.84-.28,1.66-.45,2.64-.34-.62-.61-1.12-.89-1.61-.24-.42-.39-1-.75-1.2-.33-.19-.89,.02-1.34,.07-.62,.07-1.24,.17-1.97,.27,.68-.72,1.25-1.39,1.88-2,.36-.35,.37-.63,.14-1.04-.34-.59-.61-1.22-.91-1.83-.07-.14-.13-.29-.11-.53,.2,.09,.4,.19,.6,.28,.63,.3,1.27,.59,1.89,.9,.27,.14,.46,.1,.66-.11,.66-.7,1.33-1.4,1.99-2.1l.11,.08c-.11,.96-.22,1.92-.35,2.88-.05,.35,.09,.51,.38,.65,.81,.41,1.61,.84,2.54,1.33Z"/><path d="M45.88,8.35c.91,0,1.81-.02,2.72,0,.39,.01,.56-.13,.67-.49,.28-.87,.6-1.73,.94-2.7,.29,.83,.56,1.57,.82,2.31,.36,1.03,.16,.86,1.24,.87,.75,.01,1.49,0,2.24,0l.05,.17c-.17,.13-.34,.27-.51,.4-.49,.37-.96,.77-1.48,1.11-.44,.29-.58,.58-.37,1.11,.3,.78,.5,1.61,.79,2.57-.81-.56-1.52-1.01-2.17-1.52-.45-.35-.78-.34-1.22,0-.65,.51-1.35,.96-2.16,1.52,.29-.95,.51-1.77,.79-2.58,.17-.49,.08-.79-.35-1.09-.7-.47-1.35-1.01-2.02-1.52l.02-.17Z"/><path d="M56.82,37.7c2.05-.05,3.91,.54,5.63,1.62,.3,.19,.52,.42,.33,.77-.21,.39-.53,.3-.86,.11-1.21-.72-2.47-1.26-3.9-1.43-2.04-.24-3.95,.19-5.78,1-1.46,.65-2.87,1.41-4.26,2.18-2.35,1.29-4.67,2.63-7.27,3.38-.43,.12-.87,.22-1.31,.28-.31,.05-.57-.14-.54-.44,.02-.2,.26-.5,.44-.54,1.86-.39,3.59-1.11,5.25-1.99,1.99-1.05,3.93-2.19,5.93-3.2,1.99-1.01,4.07-1.74,6.34-1.74Z"/><path d="M26.68,45.47c.13-.37,.27-.72,.37-1.09,.3-1.09,.1-1.68-.82-2.33-.76-.54-1.54-1.05-2.3-1.58-1.11-.76-2.22-1.52-3.38-2.31l1.2-1.71c.15,.09,.27,.16,.39,.24,1.88,1.29,3.76,2.57,5.63,3.87,.34,.24,.67,.5,.95,.8,.8,.86,.84,1.83,.35,2.9-.5,1.08-1.35,1.28-2.4,1.21Z"/><path d="M42.52,73.7c-.23-.26-.45-.52-.69-.77-.24-.25-.32-.52-.05-.79,.25-.24,.54-.19,.75,.05,.32,.38,.69,.74,.89,1.18,.39,.84-.2,1.65-1.09,1.43-1.32-.32-2.61-.76-3.9-1.2-2.28-.77-4.54-1.6-6.83-2.35-1.23-.4-2.52-.42-3.81-.36-.36,.02-.7-.01-.71-.48,0-.45,.32-.51,.68-.54,2.36-.19,4.59,.39,6.78,1.17,2.14,.76,4.26,1.6,6.4,2.39,.48,.18,.98,.27,1.47,.41l.1-.17Z"/><path d="M38.5,50.89c.4,.04,.67,.07,.95,.1,.33,.04,.67,.06,.98,.15,.68,.18,.9,.47,.93,1.17,.01,.28,.03,.57,0,.85-.06,.91-.48,1.22-1.36,1.01-.29-.07-.57-.16-.93-.27-.05,.38-.1,.74-.14,1.09-.09,.72-.24,1.45-.24,2.17,0,.42,.19,.87,.41,1.24,.52,.86,.27,1.46-.73,1.48-.81,.01-1.62-.11-2.43-.23-.16-.03-.38-.33-.4-.52-.03-.3,.22-.48,.54-.44,.66,.07,1.31,.16,2.08,.25-.82-1.39-.46-2.75-.25-4.1,.07-.43,.1-.86,.18-1.28,.11-.54,.43-.76,.98-.67,.4,.06,.8,.19,1.24,.3,0-.3,.03-.57-.01-.82-.02-.1-.17-.23-.29-.26-.27-.06-.56-.07-.84-.11-.28-.04-.57-.04-.84-.12-.92-.27-1.14-.97-.55-1.72,.27-.34,.57-.65,.87-.96,.23-.23,.51-.26,.75,0,.22,.23,.18,.49-.02,.72-.27,.31-.55,.6-.9,.99Z"/><path d="M17.53,57.33c.32,10.03,4.11,18.46,11.83,24.91,7.71,6.44,16.66,8.63,26.64,7.1-.98,.64-7.3,1.05-11.76,.18-3.91-.76-7.59-2.11-10.99-4.19-6.27-3.84-10.77-9.18-13.55-15.99-1.78-4.37-2.49-9.94-2.17-12.01Z"/><path d="M82.28,62.95c1.44-9.92-.77-18.89-7.23-26.6-6.44-7.68-14.84-11.48-24.85-11.81,1.5-.11,2.97,0,4.44,.21,6.93,1,12.97,3.89,18.04,8.72,4.89,4.65,8.04,10.3,9.5,16.89,1.08,4.91,.78,10.28,.1,12.59Z"/><path d="M47.66,72.23c1.36-.36,2.67-.71,3.99-1.03,.17-.04,.42-.04,.56,.05,.35,.24,.22,.76-.2,.89-.41,.13-.84,.2-1.26,.33-1.22,.38-2.44,.77-3.66,1.16-.34,.11-.69,.39-1.01,.04-.35-.39,.01-.71,.18-1.03,.55-1.03,1.17-2.02,1.66-3.07,.38-.82,.62-1.71,.89-2.58,.1-.33,.2-.64,.61-.57,.4,.06,.45,.36,.41,.72-.15,1.09-.54,2.09-1.06,3.05-.37,.68-.74,1.36-1.11,2.05Z"/><path d="M20.53,57.16c.24,9.27,3.69,16.93,10.7,22.8,7.01,5.87,15.15,7.86,24.16,6.57-1.49,.4-3.01,.53-4.54,.56-7.05,.12-13.39-1.94-18.95-6.27-5.4-4.2-8.94-9.66-10.66-16.28-.67-2.58-1.08-6.55-.71-7.37Z"/><path d="M79.41,62.41c1.26-9.01-.73-17.15-6.6-24.16-5.85-6.99-13.49-10.43-22.58-10.71,1.74-.68,9.16,.98,12.97,2.86,4.09,2.01,7.55,4.8,10.36,8.38,3.76,4.79,5.87,10.25,6.32,16.32,.18,2.45,.08,4.88-.47,7.3Z"/><path d="M59.64,70.28c.05-1.5,1.27-2.62,2.76-2.49,.31,.03,.51,.17,.51,.49,0,.32-.17,.49-.49,.51-.17,.01-.33,.02-.49,.05-.86,.17-1.36,.83-1.23,1.59,.11,.62,.93,1.11,1.68,1.02,.76-.08,1.33-.38,1.5-1.2,.03-.14,.07-.33,.17-.41,.15-.12,.41-.26,.54-.2,.17,.07,.36,.33,.36,.51-.03,1.14-.87,2-2.16,2.25-1.23,.24-2.49-.3-2.93-1.28-.12-.27-.16-.57-.23-.85Z"/><path d="M34.5,56.65c.57,.11,1.06,.21,1.54,.3,.34,.06,.63,.21,.55,.62-.07,.4-.37,.47-.72,.39-.65-.15-1.3-.26-1.93-.46-.56-.18-.68-.45-.46-1,.29-.72,.6-1.44,.97-2.13,.44-.84,.96-1.63,1.43-2.45,.18-.31,.43-.44,.75-.27,.33,.18,.31,.47,.14,.77-.65,1.16-1.3,2.31-1.95,3.48-.12,.21-.19,.45-.32,.76Z"/><path d="M43.61,82.46c0,.08,.03,.19,0,.25-.14,.2-.27,.49-.45,.54-.31,.08-.5-.16-.55-.5-.07-.56-.1-1.13-.24-1.67-.38-1.43-1.3-2.39-2.7-2.9-.22-.08-.47-.35-.5-.56-.06-.37,.35-.55,.81-.39,2.03,.7,3.17,2.16,3.52,4.25,.06,.33,.08,.66,.12,.99Z"/><path d="M81.73,65.35l-2.26-.63-.03,.07c.59,.4,1.18,.8,1.76,1.22,.12,.09,.16,.27,.24,.41-.14,.07-.29,.21-.43,.21-.69,.02-1.38,0-2.07,0v.15l2.2,.66-.15,.53-2.96-.85c.04-.18,.09-.34,.11-.5,.05-.31,.2-.44,.54-.42,.61,.03,1.23,0,1.89-.11-.44-.3-.88-.59-1.33-.89q-.64-.43-.28-1.23l2.92,.84-.15,.53Z"/><path d="M61.39,85.64l.91,2.07-.5,.24-1.27-2.84,.83-.38,1.62,1.83-.28-2.42,.82-.36,1.26,2.83-.51,.24-.97-2.13-.09,.03c.07,.71,.15,1.41,.21,2.12,.01,.14-.08,.28-.12,.42-.15-.05-.35-.05-.45-.15-.48-.5-.94-1.03-1.4-1.55l-.08,.07Z"/><path d="M74.64,73.79c.43-.68,.7-1.48,1.63-1.44,.68,.02,1.25,.38,1.57,1,.42,.82-.16,1.41-.55,2.08l-2.64-1.63Zm2.55,.91c.28-.34,.4-.67,.18-1.03-.29-.47-.73-.75-1.28-.74-.37,0-.63,.25-.74,.64l1.85,1.14Z"/><path d="M72.51,76.6c.19-.24,.35-.45,.52-.65,.26-.31,.53-.64,1-.48,.46,.15,.63,.51,.58,.94l1.55,.51c-.14,.39-.34,.56-.73,.34-.2-.11-.43-.21-.65-.24-.16-.02-.34,.09-.61,.17l1.11,.92-.34,.44-2.42-1.94Zm1.4,.39c.32-.32,.44-.62,.07-.88-.38-.27-.55,.03-.75,.34l.68,.55Z"/><path d="M79.16,72.12c-.74-.69-1.46-1.35-2.16-2.04-.09-.09-.12-.33-.06-.45,.06-.12,.26-.25,.39-.23,.97,.09,1.94,.21,2.91,.32-.04,.38-.2,.58-.58,.48-.5-.14-.5,.3-.66,.56-.16,.25-.15,.46,.12,.63,.31,.2,.31,.43,.03,.74Zm-1.6-2.25l-.06,.1,1,.87,.33-.77-1.27-.2Z"/><path d="M57.47,89.19c.05-.99,.08-1.98,.15-2.97,0-.11,.19-.27,.31-.29,.14-.02,.36,.05,.44,.16,.55,.79,1.07,1.6,1.6,2.41-.35,.31-.59,.22-.76-.17-.16-.38-.43-.2-.67-.13-.25,.07-.61,.04-.55,.48,.04,.35-.04,.6-.53,.51Zm1.34-1.52l-.68-1.16-.09,.04v1.33l.78-.22Z"/><path d="M72.46,81.05l-2.18-2.11,1.18-1.07,.26,.24-.74,.78,.64,.52,.66-.63,.31,.28-.71,.75,.73,.61,.59-.83,.39,.34-1.13,1.13Z"/><path d="M66.41,85.09c.3-.14,.53-.19,.68-.33,.11-.1,.21-.33,.17-.46-.04-.13-.24-.27-.39-.3-.22-.05-.46,0-.7,0-.52-.02-.9-.42-.87-.89,.02-.41,.63-1.02,1.01-.97,.11,.01,.2,.17,.34,.3-.23,.11-.43,.17-.57,.3-.11,.09-.21,.29-.18,.41,.03,.11,.21,.24,.35,.27,.21,.04,.43,0,.65,0,.56,0,1,.45,.97,.97-.02,.44-.68,1.07-1.09,1.01-.12-.02-.23-.18-.37-.3Z"/><path d="M69.15,79.95l.27,.33-.5,.45,1.62,2.06-.41,.38-1.65-2.07-.56,.38-.28-.32,1.51-1.2Z"/><path class="b" d="M30.48,30.27l2.45,1.86-1.62,1.17-.94-2.96,.11-.08Z"/><path class="b" d="M17.86,48.28h3.08l-.5,1.87-2.6-1.74,.02-.13Z"/><path class="b" d="M77.19,74.7l-1.85-1.14c.11-.39,.37-.64,.74-.64,.55,0,.99,.28,1.28,.74,.22,.36,.1,.69-.18,1.03Z"/><path class="b" d="M73.91,76.99l-.68-.55c.2-.3,.36-.61,.75-.34,.37,.27,.25,.56-.07,.88Z"/><path class="b" d="M77.56,69.86l1.27,.2-.33,.77-1-.87,.06-.1Z"/><path class="b" d="M58.82,87.67l-.78,.22v-1.33l.09-.04,.68,1.16Z"/></svg>