<?xml version="1.0" encoding="UTF-8"?><svg id="a" xmlns="http://www.w3.org/2000/svg" viewBox="0 0 1050 1050"><defs><style>.b{fill:#fff;fill-rule:evenodd;}</style></defs><path class="b" d="M507.68,0h34.65c158.03,9.07,269.95,69.92,353.85,153.82,83.89,83.88,144.76,195.83,153.83,353.85v34.65c-9.07,158.03-69.92,269.95-153.83,353.85-83.88,83.88-195.83,144.77-353.85,153.83h-34.65c-158.03-9.07-269.95-69.92-353.85-153.83C69.94,812.29,9.06,700.35,0,542.32v-34.65c1.87-40.25,7.23-77.59,16.27-111.83,26.59-100.7,74.71-178.66,138.08-242.03C238.75,69.43,350.61,8.7,507.68,0Zm-156.98,160.65c-68.84,32.62-122.42,81-162.22,140.7-38.21,57.3-71.81,137.63-67.2,235.2,6.05,128.11,55.64,211.57,123.9,279.83,33.19,33.19,74.43,59.91,121.8,80.32,46.65,20.1,104.61,35.1,169.05,32.03,63.81-3.04,116.53-17.12,162.75-38.85,89.64-42.15,157.75-113.52,197.92-206.33,19.47-44.98,35.66-104.15,32.55-169.57-6.06-127.39-56.98-212.91-123.9-279.82-32.96-32.96-73.96-60.59-121.27-80.85-44.74-19.16-105.99-35.08-170.1-32.02-65.2,3.1-117.36,17.62-163.28,39.37ZM197.4,820.57c.85-.7,6.27-4.28,6.3-5.78,0,.03-4-4.88-4.73-5.77-10.87-13.4-24.19-28.84-33.07-40.43h-1.58c-17.53,15.37-36.36,29.44-54.08,44.62,6.2,6.4,11.14,14.06,17.32,20.47,6.65-5.24,12.69-11.11,19.95-15.75,6.65,8.58,13.52,16.93,20.48,25.2,4.11-3.41,7.94-7.11,12.6-9.97-6.1-9.47-14.06-17.09-20.48-26.25,2.82-.34,6.98-7.64,9.45-7.35,.8,.09,4.08,4.85,5.25,6.3,5.49,6.77,12.06,15.49,16.28,19.95,1.66-2.09,3.76-3.18,6.3-5.25Zm673.05-34.12c12.66,10.44,27.22,21.78,37.8,32.55-15.36-7.22-30.87-14.28-45.68-22.05-10.24,9.18-18.01,20.83-27.3,30.97,18.47,14.96,35.92,30.93,54.6,45.68,4.33-6.35,10.21-11.14,14.18-17.85-12.94-11.21-26.71-21.59-38.85-33.6,16.48,7.33,32.02,15.58,48.82,22.58,8.59-10.14,17.32-20.13,25.73-30.45-18.66-14.77-36.06-30.79-54.6-45.68-4.45,6.4-9.92,11.78-14.7,17.85Zm-657.83,46.2c-22.29-2.28-38.05,14.84-39.37,33.07-1.74,23.81,17.47,36.32,32.02,45.68,4.72-4.03,8.8-8.7,12.6-13.65-11.13-4.21-24.71-16.69-17.85-30.45,9.71-19.47,34.09-7.56,39.9,6.82,3.24-5.16,8.32-8.48,11.55-13.65-10.08-12-19.98-25.89-38.85-27.83Zm616.35,0c-15.14,13.39-30.81,26.24-46.73,38.85,10.48,13.9,22.84,27.62,34.12,41.47,2.22,2.72,9.3,13.6,11.55,13.65-.33,0,4.77-3.89,5.77-4.73,14.3-11.87,27.67-24.11,41.48-34.65-2.67-5.03-7.23-8.17-9.97-13.13-10.09,6.89-18.27,15.68-28.35,22.57-.72-1.24-2.03-2.33-3.15-3.68-4.19-5.04-1.67-5.46,3.15-9.45,6.53-5.39,15.35-11.99,19.43-16.27-3.87-4-6.73-9.03-11.03-12.6-7.96,7.43-16.46,14.34-25.2,21-1.59-2.75-7.15-4.98-6.82-7.88,.17-1.49,5.04-3.77,6.82-5.25,6.82-5.66,15.13-13.1,19.95-17.33-3.84-4.03-6.86-8.89-11.02-12.6Zm-56.18,47.25c-20.07,7.55-44.81,19.33-47.25,42-2.39,22.12,15.53,38.58,32.55,39.9,23.61,1.83,38.99-14.42,51.45-26.25-5.8-8.9-11.03-18.37-16.27-27.83-7.11,3.21-12.84,7.81-19.95,11.03,2.25,6.33,6.5,10.65,8.93,16.8-10.52,12.63-26.07,1.93-29.4-9.45-5.52-18.85,14.7-28.08,29.4-29.93-1.6-4.91-5.58-11.9-9.45-16.27Zm-469.88,16.8c-19.65-1.49-36.28,12.09-38.33,32.03-1.35,13.16,3.98,22.56,9.97,28.87,9.9,10.44,26.18,16.84,42,21,5.61-9.44,10.74-19.35,15.75-29.4-7.02-3.3-13.15-7.5-20.47-10.5-3.08,5.49-5.09,12.06-9.45,16.28-22.17-4.05-12.05-39.1,10.5-36.23,11.25,1.43,17.84,9.62,24.67,15.23,2.62-5.61,5.78-10.67,8.4-16.28-12.41-8.16-24.96-19.63-43.05-21Zm404.77,18.9c-6.73,2.72-13.57,5.32-21,7.35,5,16.01,12.08,32.72,16.28,47.77-10.6-13.55-19.04-29.26-29.93-42.53-12.81,4.16-24.96,8.99-37.8,13.13,8.09,22.36,15.49,45.41,24.15,67.2,6.43-3.19,14.37-4.88,21-7.87-5.23-16.64-11.57-32.18-16.8-48.82,10.73,14.12,20.7,29,30.45,44.1,12.68-4.29,24.93-9.02,37.8-13.12-7.8-22.66-15.19-45.71-24.15-67.2Zm-294,26.78c-10.67-8.95-44.65-15.4-57.23-20.48-6.92,22.66-14.29,44.86-21.52,67.2,8.41,2.96,17.18,5.57,25.72,8.4,2.74-7.59,4.48-16.17,7.88-23.1,4.29,2.34,8.75,1.5,11.03,5.25,3.72,6.14-1.69,16.04-1.57,23.63,9.23,2.49,17.8,5.65,26.77,8.4-.75-8.71,3.03-17.76,1.57-25.72-1.13-6.18-6-8.2-9.45-12.08,22.97,3.33,28.68-21.55,16.8-31.5Zm185.33,5.25c4.84,22.98,9.26,46.39,14.18,69.3,9.26-1.06,16.98-3.66,26.25-4.72-4.77-23.41-8.56-47.79-14.7-69.82-8.47,1.85-17.26,3.4-25.73,5.25Zm-157.5,4.2c-14.8,7.61-24.05,35.55-13.12,53.55,13.3,21.92,57.06,22.09,69.3,1.58,3.81-6.38,9.6-25.25,2.1-39.9-6.72-13.13-25.82-20.76-45.67-18.37-6.62,.79-9.39,1.5-12.6,3.15Zm125.47,0c.78,16.54,2.53,34.93,2.63,50.4-5.88-16-10.91-32.84-16.28-49.35-14.17,.18-27.12,1.58-40.95,2.1,1.71,23.31,2.99,47.06,4.2,70.88,8-.05,15-1.1,23.1-1.05-.58-17.27-2.46-36.04-2.62-51.97,6.2,16.55,11.35,34.15,17.32,50.93,13.37-.63,26.18-1.83,39.9-2.1-1.81-23.56-2.24-48.52-4.73-71.4-7.02,1.03-15.11,.99-22.58,1.58Z"/><path class="b" d="M354.37,516.07c-.53-24.17-1.56-53.35,.52-76.65,113.6-.96,232.04-.53,349.13-.53,7.91,0,18.38,.91,21.53-1.57,4.23-3.35,3.46-22.14,1.57-27.3-2.39-6.53-15.52-12.85-22.05-16.8-48.51-29.35-95.55-58.94-143.85-87.67-12.51-7.44-25.21-20.53-46.2-16.28-7.52,1.52-16.79,8.79-24.67,13.65-47.54,29.26-93.73,57.88-142.28,87.67-9.19,5.64-19,9.76-22.57,17.32-5.93,12.56-2.62,41.6-2.62,60.38v156.45c0,10.01-1.52,22.65,1.05,29.93,2.5,7.05,13.94,13.48,21,17.85,48.95,30.3,95.07,57.46,144.38,88.2,7.8,4.87,16.58,12.06,24.15,14.18,11.95,3.34,23.85-1.18,33.07-6.83,53.2-32.56,102.52-62.75,155.4-95.02,8.21-5.01,21.43-10.52,24.68-16.8,2.18-4.23,3.6-24.1-.53-28.35-4.63-4.78-35.79-2.1-45.15-2.1-109.14,0-219.34,.87-326.55-1.05-.53-24.17-1.56-53.35,.52-76.65,117.4-1.91,254.83-1.05,379.05-1.05,32.78,0,63.08-3.38,69.82,22.58,3.16,12.17,1.05,28.4,1.05,42v42.53c0,29.23-10.98,45.63-27.83,57.23-17.22,11.85-35.76,21.32-53.55,32.03-52.3,31.47-108.74,65.11-160.13,95.55-17.95,10.64-41.96,16.91-67.2,7.35-19.07-7.22-36.58-21.14-53.55-31.5-51.82-31.62-104.62-64.96-158.03-97.65-9.39-5.75-16.98-10.78-23.63-18.9-6.47-7.91-11.82-17.25-14.17-28.35-2.56-12.07-1.58-26.7-1.58-41.47v-212.63c0-14.66,1.63-25.59,6.82-35.7,4.46-8.68,11.01-18.08,18.38-24.15,8.23-6.78,19.91-11.81,30.45-18.37,59.73-37.24,119.48-73.1,180.07-111.3,10.99-6.93,21.99-11.29,37.27-13.12,22.95-2.76,39.47,9.62,53.55,17.85,60.98,35.65,119.48,71.5,179.02,106.57,22.78,13.42,47,24,53.03,54.08,4,19.97,1.05,46.25,1.05,70.35,0,13.72,1.61,28.79-2.63,37.8-3.5,7.45-11.55,13.82-21,16.27-14.62,3.79-35.41,1.05-53.02,1.05-122.26,0-254.73,.86-373.8-1.05Z"/><path class="b" d="M371.7,959.17c1.45-5.02,3.26-9.7,4.73-14.7,5.75,2.36,13.77,2.28,15.75,7.35,4.69,12.04-12.62,12.93-20.48,7.35Z"/><path class="b" d="M463.05,965.48c16.61-3.11,14.68,32.95,4.72,38.33-20.22,10.91-20.12-35.45-4.72-38.33Z"/></svg>